<svg width="56" height="89" viewBox="0 0 56 89" xmlns="http://www.w3.org/2000/svg"><g fill-rule="nonzero" fill="none"><path d="M20.594.969A2 2 0 0 0 18.844 3v10.188a2 2 0 1 0 4 0V3a2 2 0 0 0-2.25-2.031zM5.437 9.094A2 2 0 0 0 4.125 12.5l6.688 7.219a2.012 2.012 0 1 0 2.937-2.75L7.031 9.75a2 2 0 0 0-1.593-.656zm30.532 0a2 2 0 0 0-1.344.656l-6.719 7.219a2.012 2.012 0 0 0 2.938 2.75l6.718-7.219a2 2 0 0 0-1.593-3.406zM21.375 20.437c-3.884 0-7.219 3.004-7.219 6.844v28c-1.029-1.162-2.212-2.556-3.187-3.468-1.012-.948-2.06-1.76-3.313-2.25-1.253-.491-2.728-.56-4.125-.126-1.674.52-2.712 1.874-3.219 3.407-.506 1.532-.429 3.431.657 5.031 3.5 5.157 7.288 12.76 12.031 19.187C17.743 83.49 23.7 89 31.625 89h4.344C46.969 89 56 80.553 56 69.5V48.25c0-3.6-2.55-6.875-6.094-6.875-1.096 0-2.073.396-2.937.938-1.06-2.161-3.08-3.75-5.594-3.75-1.279 0-2.42.479-3.406 1.156-1.238-2.13-3.556-3.594-6.219-3.594-1.163 0-2.2.334-3.188.813V27.28c0-3.84-3.303-6.843-7.187-6.843z" fill="#000"/><path d="M21.375 24.438c1.877 0 3.188 1.3 3.188 2.843v24.813a2 2 0 1 0 4 0v-9.282a2 2 0 0 0 .03-.156c.162-1.375 1.408-2.531 3.157-2.531 1.876 0 3.186 1.29 3.188 2.844l.03 9.593a2 2 0 1 0 4 0l-.03-7.437a2 2 0 0 0 0-.031 2 2 0 0 0 .093-.282c.257-1.381 1.239-2.25 2.344-2.25 1.265 0 2.406 1.16 2.406 2.876v7.25a2 2 0 1 0 4 0v-4.782a2 2 0 0 0 .063-.25c.225-1.47 1.171-2.281 2.062-2.281 1.003 0 2.094 1.09 2.094 2.875V69.5C52 78.4 44.962 85 35.969 85h-4.344c-6.062 0-10.964-4.293-15.406-10.313-4.443-6.019-8.174-13.516-11.938-19.062-.326-.48-.357-1.018-.187-1.531.17-.514.568-.826.625-.844.606-.188.972-.144 1.5.063.528.206 1.216.674 2.031 1.437 1.63 1.526 3.673 4.1 6.469 7a2 2 0 0 0 3.437-1.375V27.281c0-1.543 1.342-2.843 3.219-2.843z" fill="#FFF"/></g></svg>